<svg width="128" height="128" viewBox="0 0 128 128" fill="none" xmlns="http://www.w3.org/2000/svg">
<rect width="128" height="128" rx="8" fill="#07062E"/>
<rect width="2" height="2" transform="translate(48 10)" fill="#22223C"/>
<rect width="2" height="2" transform="translate(50 10)" fill="#22223C"/>
<rect width="2" height="2" transform="translate(48 12)" fill="#22223C"/>
<rect width="2" height="2" transform="translate(46 12)" fill="#1E1E3A"/>
<rect width="2" height="2" transform="translate(44 10)" fill="#181837"/>
<rect width="2" height="2" transform="translate(44 8)" fill="#161635"/>
<rect width="2" height="2" transform="translate(52 6)" fill="#161635"/>
<rect width="2" height="2" transform="translate(44 14)" fill="#161635"/>
<rect width="2" height="2" transform="translate(46 16)" fill="#161635"/>
<rect width="2" height="2" transform="translate(52 16)" fill="#161635"/>
<rect width="2" height="2" transform="translate(54 14)" fill="#161635"/>
<rect width="2" height="2" transform="translate(54 8)" fill="#161635"/>
<rect width="2" height="2" transform="translate(46 6)" fill="#161635"/>
<rect width="2" height="2" transform="translate(44 12)" fill="#181837"/>
<rect width="2" height="2" transform="translate(46 10)" fill="#1E1E3A"/>
<rect width="2" height="2" transform="translate(48 8)" fill="#1E1E3A"/>
<rect width="2" height="2" transform="translate(50 8)" fill="#1E1E3A"/>
<rect width="2" height="2" transform="translate(50 12)" fill="#22223C"/>
<rect width="2" height="2" transform="translate(48 14)" fill="#1E1E3A"/>
<rect width="2" height="2" transform="translate(46 14)" fill="#1B1B38"/>
<rect width="2" height="2" transform="translate(52 8)" fill="#1B1B38"/>
<rect width="2" height="2" transform="translate(46 8)" fill="#1B1B38"/>
<rect width="2" height="2" transform="translate(52 14)" fill="#1B1B38"/>
<rect width="2" height="2" transform="translate(48 16)" fill="#181837"/>
<rect width="2" height="2" transform="translate(50 16)" fill="#181837"/>
<rect width="2" height="2" transform="translate(50 14)" fill="#1E1E3A"/>
<rect width="2" height="2" transform="translate(52 12)" fill="#1E1E3A"/>
<rect width="2" height="2" transform="translate(52 10)" fill="#1E1E3A"/>
<rect width="2" height="2" transform="translate(48 6)" fill="#181837"/>
<rect width="2" height="2" transform="translate(50 6)" fill="#181837"/>
<rect width="2" height="2" transform="translate(54 10)" fill="#181837"/>
<rect width="2" height="2" transform="translate(54 12)" fill="#181837"/>
<rect width="4.66667" height="4.66667" transform="translate(103.333 15.3333)" fill="#171134"/>
<rect width="4.66667" height="4.66667" transform="translate(108 15.3333)" fill="#171134"/>
<rect width="4.66667" height="4.66667" transform="translate(103.333 20)" fill="#171134"/>
<rect width="4.66667" height="4.66667" transform="translate(98.6667 20)" fill="#110D31"/>
<rect width="4.66667" height="4.66667" transform="translate(94 15.3333)" fill="#0B082F"/>
<rect width="4.66667" height="4.66667" transform="translate(94 10.6667)" fill="#09072E"/>
<rect width="4.66667" height="4.66667" transform="translate(112.667 6)" fill="#09072E"/>
<rect width="4.66667" height="4.66667" transform="translate(94 24.6667)" fill="#09072E"/>
<rect width="4.66667" height="4.66667" transform="translate(98.6667 29.3333)" fill="#09072E"/>
<rect width="4.66667" height="4.66667" transform="translate(112.667 29.3333)" fill="#09072E"/>
<rect width="4.66667" height="4.66667" transform="translate(117.333 24.6667)" fill="#09072E"/>
<rect width="4.66667" height="4.66667" transform="translate(117.333 10.6667)" fill="#09072E"/>
<rect width="4.66667" height="4.66667" transform="translate(98.6667 6)" fill="#09072E"/>
<rect width="4.66667" height="4.66667" transform="translate(94 20)" fill="#0B082F"/>
<rect width="4.66667" height="4.66667" transform="translate(98.6667 15.3333)" fill="#110D31"/>
<rect width="4.66667" height="4.66667" transform="translate(103.333 10.6667)" fill="#110D31"/>
<rect width="4.66667" height="4.66667" transform="translate(108 10.6667)" fill="#110D31"/>
<rect width="4.66667" height="4.66667" transform="translate(108 20)" fill="#171134"/>
<rect width="4.66667" height="4.66667" transform="translate(103.333 24.6667)" fill="#110D31"/>
<rect width="4.66667" height="4.66667" transform="translate(98.6667 24.6667)" fill="#0D0A30"/>
<rect width="4.66667" height="4.66667" transform="translate(112.667 10.6667)" fill="#0D0A30"/>
<rect width="4.66667" height="4.66667" transform="translate(98.6667 10.6667)" fill="#0D0A30"/>
<rect width="4.66667" height="4.66667" transform="translate(112.667 24.6667)" fill="#0D0A30"/>
<rect width="4.66667" height="4.66667" transform="translate(103.333 29.3333)" fill="#0B082F"/>
<rect width="4.66667" height="4.66667" transform="translate(108 29.3333)" fill="#0B082F"/>
<rect width="4.66667" height="4.66667" transform="translate(108 24.6667)" fill="#110D31"/>
<rect width="4.66667" height="4.66667" transform="translate(112.667 20)" fill="#110D31"/>
<rect width="4.66667" height="4.66667" transform="translate(112.667 15.3333)" fill="#110D31"/>
<rect width="4.66667" height="4.66667" transform="translate(103.333 6)" fill="#0B082F"/>
<rect width="4.66667" height="4.66667" transform="translate(108 6)" fill="#0B082F"/>
<rect width="4.66667" height="4.66667" transform="translate(117.333 15.3333)" fill="#0B082F"/>
<rect width="4.66667" height="4.66667" transform="translate(117.333 20)" fill="#0B082F"/>
<rect width="3.16667" height="3.16667" transform="translate(13.3333 62.3333)" fill="#171134"/>
<rect width="3.16667" height="3.16667" transform="translate(16.5 62.3333)" fill="#171134"/>
<rect width="3.16667" height="3.16667" transform="translate(13.3333 65.5)" fill="#171134"/>
<rect width="3.16667" height="3.16667" transform="translate(10.1667 65.5)" fill="#110D31"/>
<rect width="3.16667" height="3.16667" transform="translate(7 62.3333)" fill="#0B082F"/>
<rect width="3.16667" height="3.16667" transform="translate(7 59.1667)" fill="#09072E"/>
<rect width="3.16667" height="3.16667" transform="translate(19.6667 56)" fill="#09072E"/>
<rect width="3.16667" height="3.16667" transform="translate(7 68.6667)" fill="#09072E"/>
<rect width="3.16667" height="3.16667" transform="translate(10.1667 71.8333)" fill="#09072E"/>
<rect width="3.16667" height="3.16667" transform="translate(19.6667 71.8333)" fill="#09072E"/>
<rect width="3.16667" height="3.16667" transform="translate(22.8333 68.6667)" fill="#09072E"/>
<rect width="3.16667" height="3.16667" transform="translate(22.8333 59.1667)" fill="#09072E"/>
<rect width="3.16667" height="3.16667" transform="translate(10.1667 56)" fill="#09072E"/>
<rect width="3.16667" height="3.16667" transform="translate(7 65.5)" fill="#0B082F"/>
<rect width="3.16667" height="3.16667" transform="translate(10.1667 62.3333)" fill="#110D31"/>
<rect width="3.16667" height="3.16667" transform="translate(13.3333 59.1667)" fill="#110D31"/>
<rect width="3.16667" height="3.16667" transform="translate(16.5 59.1667)" fill="#110D31"/>
<rect width="3.16667" height="3.16667" transform="translate(16.5 65.5)" fill="#171134"/>
<rect width="3.16667" height="3.16667" transform="translate(13.3333 68.6667)" fill="#110D31"/>
<rect width="3.16667" height="3.16667" transform="translate(10.1667 68.6667)" fill="#0D0A30"/>
<rect width="3.16667" height="3.16667" transform="translate(19.6667 59.1667)" fill="#0D0A30"/>
<rect width="3.16667" height="3.16667" transform="translate(10.1667 59.1667)" fill="#0D0A30"/>
<rect width="3.16667" height="3.16667" transform="translate(19.6667 68.6667)" fill="#0D0A30"/>
<rect width="3.16667" height="3.16667" transform="translate(13.3333 71.8333)" fill="#0B082F"/>
<rect width="3.16667" height="3.16667" transform="translate(16.5 71.8333)" fill="#0B082F"/>
<rect width="3.16667" height="3.16667" transform="translate(16.5 68.6667)" fill="#110D31"/>
<rect width="3.16667" height="3.16667" transform="translate(19.6667 65.5)" fill="#110D31"/>
<rect width="3.16667" height="3.16667" transform="translate(19.6667 62.3333)" fill="#110D31"/>
<rect width="3.16667" height="3.16667" transform="translate(13.3333 56)" fill="#0B082F"/>
<rect width="3.16667" height="3.16667" transform="translate(16.5 56)" fill="#0B082F"/>
<rect width="3.16667" height="3.16667" transform="translate(22.8333 62.3333)" fill="#0B082F"/>
<rect width="3.16667" height="3.16667" transform="translate(22.8333 65.5)" fill="#0B082F"/>
<rect width="2.5" height="2.5" transform="translate(109 70)" fill="#171134"/>
<rect width="2.5" height="2.5" transform="translate(111.5 70)" fill="#171134"/>
<rect width="2.5" height="2.5" transform="translate(109 72.5)" fill="#171134"/>
<rect width="2.5" height="2.5" transform="translate(106.5 72.5)" fill="#110D31"/>
<rect width="2.5" height="2.5" transform="translate(104 70)" fill="#0B082F"/>
<rect width="2.5" height="2.5" transform="translate(104 67.5)" fill="#09072E"/>
<rect width="2.5" height="2.5" transform="translate(114 65)" fill="#09072E"/>
<rect width="2.5" height="2.5" transform="translate(104 75)" fill="#09072E"/>
<rect width="2.5" height="2.5" transform="translate(106.5 77.5)" fill="#09072E"/>
<rect width="2.5" height="2.5" transform="translate(114 77.5)" fill="#09072E"/>
<rect width="2.5" height="2.5" transform="translate(116.5 75)" fill="#09072E"/>
<rect width="2.5" height="2.5" transform="translate(116.5 67.5)" fill="#09072E"/>
<rect width="2.5" height="2.5" transform="translate(106.5 65)" fill="#09072E"/>
<rect width="2.5" height="2.5" transform="translate(104 72.5)" fill="#0B082F"/>
<rect width="2.5" height="2.5" transform="translate(106.5 70)" fill="#110D31"/>
<rect width="2.5" height="2.5" transform="translate(109 67.5)" fill="#110D31"/>
<rect width="2.5" height="2.5" transform="translate(111.5 67.5)" fill="#110D31"/>
<rect width="2.5" height="2.5" transform="translate(111.5 72.5)" fill="#171134"/>
<rect width="2.5" height="2.5" transform="translate(109 75)" fill="#110D31"/>
<rect width="2.5" height="2.5" transform="translate(106.5 75)" fill="#0D0A30"/>
<rect width="2.5" height="2.5" transform="translate(114 67.5)" fill="#0D0A30"/>
<rect width="2.5" height="2.5" transform="translate(106.5 67.5)" fill="#0D0A30"/>
<rect width="2.5" height="2.5" transform="translate(114 75)" fill="#0D0A30"/>
<rect width="2.5" height="2.5" transform="translate(109 77.5)" fill="#0B082F"/>
<rect width="2.5" height="2.5" transform="translate(111.5 77.5)" fill="#0B082F"/>
<rect width="2.5" height="2.5" transform="translate(111.5 75)" fill="#110D31"/>
<rect width="2.5" height="2.5" transform="translate(114 72.5)" fill="#110D31"/>
<rect width="2.5" height="2.5" transform="translate(114 70)" fill="#110D31"/>
<rect width="2.5" height="2.5" transform="translate(109 65)" fill="#0B082F"/>
<rect width="2.5" height="2.5" transform="translate(111.5 65)" fill="#0B082F"/>
<rect width="2.5" height="2.5" transform="translate(116.5 70)" fill="#0B082F"/>
<rect width="2.5" height="2.5" transform="translate(116.5 72.5)" fill="#0B082F"/>
<path d="M50.7846 95.2857H51.6417V96.1429H50.7846V95.2857ZM51.6417 95.2857H52.4989V96.1429H51.6417V95.2857ZM51.6417 94.4286H52.4989V95.2857H51.6417V94.4286ZM52.4989 95.2857H53.356V96.1429H52.4989V95.2857ZM52.4989 96.1429H53.356V97H52.4989V96.1429ZM53.356 96.1429H54.2132V97H53.356V96.1429ZM51.6417 96.1429H52.4989V97H51.6417V96.1429ZM50.7846 96.1429H51.6417V97H50.7846V96.1429ZM49.9275 96.1429H50.7846V97H49.9275V96.1429ZM49.9275 97H50.7846V97.8571H49.9275V97ZM49.0703 97H49.9275V97.8571H49.0703V97ZM50.7846 97H51.6417V97.8571H50.7846V97ZM49.9275 97.8571H50.7846V98.7143H49.9275V97.8571ZM49.9275 98.7143H50.7846V99.5714H49.9275V98.7143ZM49.9275 99.5714H50.7846V100.429H49.9275V99.5714ZM50.7846 99.5714H51.6417V100.429H50.7846V99.5714ZM51.6417 99.5714H52.4989V100.429H51.6417V99.5714ZM52.4989 99.5714H53.356V100.429H52.4989V99.5714ZM53.356 99.5714H54.2132V100.429H53.356V99.5714ZM54.2132 99.5714H55.0703V100.429H54.2132V99.5714ZM54.2132 98.7143H55.0703V99.5714H54.2132V98.7143ZM54.2132 97.8571H55.0703V98.7143H54.2132V97.8571ZM54.2132 97H55.0703V97.8571H54.2132V97ZM53.356 97H54.2132V97.8571H53.356V97ZM52.4989 97H53.356V97.8571H52.4989V97ZM53.356 97.8571H54.2132V98.7143H53.356V97.8571ZM53.356 98.7143H54.2132V99.5714H53.356V98.7143ZM53.356 100.429H54.2132V101.286H53.356V100.429ZM54.2132 100.429H55.0703V101.286H54.2132V100.429ZM54.2132 101.286H55.0703V102.143H54.2132V101.286ZM54.2132 102.143H55.0703V103H54.2132V102.143ZM53.356 102.143H54.2132V103H53.356V102.143ZM53.356 101.286H54.2132V102.143H53.356V101.286ZM52.4989 100.429H53.356V101.286H52.4989V100.429ZM51.6417 100.429H52.4989V101.286H51.6417V100.429ZM50.7846 100.429H51.6417V101.286H50.7846V100.429ZM49.9275 100.429H50.7846V101.286H49.9275V100.429ZM49.9275 101.286H50.7846V102.143H49.9275V101.286ZM49.9275 102.143H50.7846V103H49.9275V102.143ZM49.0703 102.143H49.9275V103H49.0703V102.143ZM49.0703 101.286H49.9275V102.143H49.0703V101.286ZM49.0703 100.429H49.9275V101.286H49.0703V100.429ZM49.0703 99.5714H49.9275V100.429H49.0703V99.5714ZM49.0703 98.7143H49.9275V99.5714H49.0703V98.7143ZM49.0703 97.8571H49.9275V98.7143H49.0703V97.8571ZM55.9297 97H56.7868V97.8571H55.9297V97ZM56.7868 97.8571H57.644V98.7143H56.7868V97.8571ZM55.9297 97.8571H56.7868V98.7143H55.9297V97.8571ZM55.9297 98.7143H56.7868V99.5714H55.9297V98.7143ZM56.7868 98.7143H57.644V99.5714H56.7868V98.7143ZM56.7868 99.5714H57.644V100.429H56.7868V99.5714ZM57.644 99.5714H58.5011V100.429H57.644V99.5714ZM58.5011 99.5714H59.3583V100.429H58.5011V99.5714ZM59.3583 98.7143H60.2154V99.5714H59.3583V98.7143ZM58.5011 98.7143H59.3583V99.5714H58.5011V98.7143ZM57.644 98.7143H58.5011V99.5714H57.644V98.7143ZM59.3583 99.5714H60.2154V100.429H59.3583V99.5714ZM60.2154 99.5714H61.0725V100.429H60.2154V99.5714ZM60.2154 100.429H61.0725V101.286H60.2154V100.429ZM59.3583 100.429H60.2154V101.286H59.3583V100.429ZM59.3583 101.286H60.2154V102.143H59.3583V101.286ZM60.2154 101.286H61.0725V102.143H60.2154V101.286ZM59.3583 102.143H60.2154V103H59.3583V102.143ZM58.5011 101.286H59.3583V102.143H58.5011V101.286ZM57.644 101.286H58.5011V102.143H57.644V101.286ZM56.7868 101.286H57.644V102.143H56.7868V101.286ZM55.9297 101.286H56.7868V102.143H55.9297V101.286ZM56.7868 102.143H57.644V103H56.7868V102.143ZM57.644 102.143H58.5011V103H57.644V102.143ZM58.5011 102.143H59.3583V103H58.5011V102.143ZM60.2154 97H61.0725V97.8571H60.2154V97ZM59.3583 97H60.2154V97.8571H59.3583V97ZM59.3583 96.1429H60.2154V97H59.3583V96.1429ZM58.5011 96.1429H59.3583V97H58.5011V96.1429ZM57.644 96.1429H58.5011V97H57.644V96.1429ZM56.7868 96.1429H57.644V97H56.7868V96.1429ZM56.7868 97H57.644V97.8571H56.7868V97ZM57.644 97H58.5011V97.8571H57.644V97ZM58.5011 97H59.3583V97.8571H58.5011V97ZM65.3583 101.286H66.2154V102.143H65.3583V101.286ZM65.3583 102.143H66.2154V103H65.3583V102.143ZM64.5011 102.143H65.3583V103H64.5011V102.143ZM64.5011 101.286H65.3583V102.143H64.5011V101.286ZM63.644 102.143H64.5011V103H63.644V102.143ZM63.644 101.286H64.5011V102.143H63.644V101.286ZM62.7868 101.286H63.644V102.143H62.7868V101.286ZM62.7868 100.429H63.644V101.286H62.7868V100.429ZM62.7868 99.5714H63.644V100.429H62.7868V99.5714ZM62.7868 98.7143H63.644V99.5714H62.7868V98.7143ZM62.7868 97.8571H63.644V98.7143H62.7868V97.8571ZM62.7868 97H63.644V97.8571H62.7868V97ZM63.644 99.5714H64.5011V100.429H63.644V99.5714ZM63.644 100.429H64.5011V101.286H63.644V100.429ZM63.644 98.7143H64.5011V99.5714H63.644V98.7143ZM63.644 97.8571H64.5011V98.7143H63.644V97.8571ZM63.644 94.4286H64.5011V95.2857H63.644V94.4286ZM63.644 95.2857H64.5011V96.1429H63.644V95.2857ZM63.644 96.1429H64.5011V97H63.644V96.1429ZM63.644 97H64.5011V97.8571H63.644V97ZM62.7868 96.1429H63.644V97H62.7868V96.1429ZM61.9297 97H62.7868V97.8571H61.9297V97ZM64.5011 97H65.3583V97.8571H64.5011V97ZM65.3583 97H66.2154V97.8571H65.3583V97ZM62.7868 95.2857H63.644V96.1429H62.7868V95.2857ZM61.9297 97.8571H62.7868V98.7143H61.9297V97.8571ZM64.5011 97.8571H65.3583V98.7143H64.5011V97.8571ZM65.3583 97.8571H66.2154V98.7143H65.3583V97.8571ZM67.0703 97H67.9275V97.8571H67.0703V97ZM67.0703 96.1429H67.9275V97H67.0703V96.1429ZM67.9275 96.1429H68.7846V97H67.9275V96.1429ZM67.9275 97H68.7846V97.8571H67.9275V97ZM67.9275 97.8571H68.7846V98.7143H67.9275V97.8571ZM67.9275 98.7143H68.7846V99.5714H67.9275V98.7143ZM67.9275 99.5714H68.7846V100.429H67.9275V99.5714ZM67.0703 99.5714H67.9275V100.429H67.0703V99.5714ZM67.0703 98.7143H67.9275V99.5714H67.0703V98.7143ZM67.0703 97.8571H67.9275V98.7143H67.0703V97.8571ZM67.0703 100.429H67.9275V101.286H67.0703V100.429ZM67.9275 100.429H68.7846V101.286H67.9275V100.429ZM67.9275 101.286H68.7846V102.143H67.9275V101.286ZM67.9275 102.143H68.7846V103H67.9275V102.143ZM67.0703 102.143H67.9275V103H67.0703V102.143ZM67.0703 101.286H67.9275V102.143H67.0703V101.286ZM68.7846 97H69.6417V97.8571H68.7846V97ZM69.6417 97H70.4989V97.8571H69.6417V97ZM70.4989 97H71.356V97.8571H70.4989V97ZM70.4989 96.1429H71.356V97H70.4989V96.1429ZM69.6417 96.1429H70.4989V97H69.6417V96.1429ZM68.7846 97.8571H69.6417V98.7143H68.7846V97.8571ZM71.356 97H72.2132V97.8571H71.356V97ZM70.4989 97.8571H71.356V98.7143H70.4989V97.8571ZM74.7846 96.1429H75.6417V97H74.7846V96.1429ZM73.9275 96.1429H74.7846V97H73.9275V96.1429ZM73.9275 97H74.7846V97.8571H73.9275V97ZM74.7846 97H75.6417V97.8571H74.7846V97ZM75.6417 96.1429H76.4989V97H75.6417V96.1429ZM76.4989 96.1429H77.356V97H76.4989V96.1429ZM77.356 96.1429H78.2132V97H77.356V96.1429ZM77.356 97H78.2132V97.8571H77.356V97ZM76.4989 97H77.356V97.8571H76.4989V97ZM77.356 98.7143H78.2132V99.5714H77.356V98.7143ZM78.2132 97H79.0703V97.8571H78.2132V97ZM78.2132 97.8571H79.0703V98.7143H78.2132V97.8571ZM78.2132 98.7143H79.0703V99.5714H78.2132V98.7143ZM78.2132 99.5714H79.0703V100.429H78.2132V99.5714ZM78.2132 100.429H79.0703V101.286H78.2132V100.429ZM78.2132 101.286H79.0703V102.143H78.2132V101.286ZM77.356 101.286H78.2132V102.143H77.356V101.286ZM77.356 100.429H78.2132V101.286H77.356V100.429ZM77.356 99.5714H78.2132V100.429H77.356V99.5714ZM77.356 97.8571H78.2132V98.7143H77.356V97.8571ZM76.4989 101.286H77.356V102.143H76.4989V101.286ZM77.356 102.143H78.2132V103H77.356V102.143ZM76.4989 102.143H77.356V103H76.4989V102.143ZM75.6417 102.143H76.4989V103H75.6417V102.143ZM74.7846 102.143H75.6417V103H74.7846V102.143ZM73.9275 102.143H74.7846V103H73.9275V102.143ZM73.9275 101.286H74.7846V102.143H73.9275V101.286ZM74.7846 101.286H75.6417V102.143H74.7846V101.286ZM73.9275 100.429H74.7846V101.286H73.9275V100.429ZM73.0703 101.286H73.9275V102.143H73.0703V101.286ZM73.0703 100.429H73.9275V101.286H73.0703V100.429ZM73.0703 99.5714H73.9275V100.429H73.0703V99.5714ZM73.0703 98.7143H73.9275V99.5714H73.0703V98.7143ZM73.0703 97.8571H73.9275V98.7143H73.0703V97.8571ZM73.0703 97H73.9275V97.8571H73.0703V97ZM73.9275 97.8571H74.7846V98.7143H73.9275V97.8571ZM73.9275 98.7143H74.7846V99.5714H73.9275V98.7143ZM73.9275 99.5714H74.7846V100.429H73.9275V99.5714ZM75.6417 101.286H76.4989V102.143H75.6417V101.286ZM75.6417 97H76.4989V97.8571H75.6417V97ZM46.0658 105.286H46.923V106.143H46.0658V105.286ZM46.923 105.286H47.7801V106.143H46.923V105.286ZM46.923 104.429H47.7801V105.286H46.923V104.429ZM47.7801 105.286H48.6373V106.143H47.7801V105.286ZM47.7801 106.143H48.6373V107H47.7801V106.143ZM48.6373 106.143H49.4944V107H48.6373V106.143ZM46.923 106.143H47.7801V107H46.923V106.143ZM46.0658 106.143H46.923V107H46.0658V106.143ZM45.2087 106.143H46.0658V107H45.2087V106.143ZM45.2087 107H46.0658V107.857H45.2087V107ZM44.3516 107H45.2087V107.857H44.3516V107ZM46.0658 107H46.923V107.857H46.0658V107ZM45.2087 107.857H46.0658V108.714H45.2087V107.857ZM45.2087 108.714H46.0658V109.571H45.2087V108.714ZM45.2087 109.571H46.0658V110.429H45.2087V109.571ZM46.0658 109.571H46.923V110.429H46.0658V109.571ZM46.923 109.571H47.7801V110.429H46.923V109.571ZM47.7801 109.571H48.6373V110.429H47.7801V109.571ZM48.6373 109.571H49.4944V110.429H48.6373V109.571ZM49.4944 109.571H50.3516V110.429H49.4944V109.571ZM49.4944 108.714H50.3516V109.571H49.4944V108.714ZM49.4944 107.857H50.3516V108.714H49.4944V107.857ZM49.4944 107H50.3516V107.857H49.4944V107ZM48.6373 107H49.4944V107.857H48.6373V107ZM47.7801 107H48.6373V107.857H47.7801V107ZM48.6373 107.857H49.4944V108.714H48.6373V107.857ZM48.6373 108.714H49.4944V109.571H48.6373V108.714ZM48.6373 110.429H49.4944V111.286H48.6373V110.429ZM49.4944 110.429H50.3516V111.286H49.4944V110.429ZM49.4944 111.286H50.3516V112.143H49.4944V111.286ZM49.4944 112.143H50.3516V113H49.4944V112.143ZM48.6373 112.143H49.4944V113H48.6373V112.143ZM48.6373 111.286H49.4944V112.143H48.6373V111.286ZM47.7801 110.429H48.6373V111.286H47.7801V110.429ZM46.923 110.429H47.7801V111.286H46.923V110.429ZM46.0658 110.429H46.923V111.286H46.0658V110.429ZM45.2087 110.429H46.0658V111.286H45.2087V110.429ZM45.2087 111.286H46.0658V112.143H45.2087V111.286ZM45.2087 112.143H46.0658V113H45.2087V112.143ZM44.3516 112.143H45.2087V113H44.3516V112.143ZM44.3516 111.286H45.2087V112.143H44.3516V111.286ZM44.3516 110.429H45.2087V111.286H44.3516V110.429ZM44.3516 109.571H45.2087V110.429H44.3516V109.571ZM44.3516 108.714H45.2087V109.571H44.3516V108.714ZM44.3516 107.857H45.2087V108.714H44.3516V107.857ZM51.2109 107H52.0681V107.857H51.2109V107ZM52.0681 107.857H52.9252V108.714H52.0681V107.857ZM51.2109 107.857H52.0681V108.714H51.2109V107.857ZM51.2109 108.714H52.0681V109.571H51.2109V108.714ZM52.0681 108.714H52.9252V109.571H52.0681V108.714ZM52.0681 109.571H52.9252V110.429H52.0681V109.571ZM52.9252 109.571H53.7824V110.429H52.9252V109.571ZM53.7824 109.571H54.6395V110.429H53.7824V109.571ZM54.6395 108.714H55.4967V109.571H54.6395V108.714ZM53.7824 108.714H54.6395V109.571H53.7824V108.714ZM52.9252 108.714H53.7824V109.571H52.9252V108.714ZM54.6395 109.571H55.4967V110.429H54.6395V109.571ZM55.4967 109.571H56.3538V110.429H55.4967V109.571ZM55.4967 110.429H56.3538V111.286H55.4967V110.429ZM54.6395 110.429H55.4967V111.286H54.6395V110.429ZM54.6395 111.286H55.4967V112.143H54.6395V111.286ZM55.4967 111.286H56.3538V112.143H55.4967V111.286ZM54.6395 112.143H55.4967V113H54.6395V112.143ZM53.7824 111.286H54.6395V112.143H53.7824V111.286ZM52.9252 111.286H53.7824V112.143H52.9252V111.286ZM52.0681 111.286H52.9252V112.143H52.0681V111.286ZM51.2109 111.286H52.0681V112.143H51.2109V111.286ZM52.0681 112.143H52.9252V113H52.0681V112.143ZM52.9252 112.143H53.7824V113H52.9252V112.143ZM53.7824 112.143H54.6395V113H53.7824V112.143ZM55.4967 107H56.3538V107.857H55.4967V107ZM54.6395 107H55.4967V107.857H54.6395V107ZM54.6395 106.143H55.4967V107H54.6395V106.143ZM53.7824 106.143H54.6395V107H53.7824V106.143ZM52.9252 106.143H53.7824V107H52.9252V106.143ZM52.0681 106.143H52.9252V107H52.0681V106.143ZM52.0681 107H52.9252V107.857H52.0681V107ZM52.9252 107H53.7824V107.857H52.9252V107ZM53.7824 107H54.6395V107.857H53.7824V107ZM57.2109 107H58.0681V107.857H57.2109V107ZM58.0681 107.857H58.9252V108.714H58.0681V107.857ZM57.2109 107.857H58.0681V108.714H57.2109V107.857ZM57.2109 108.714H58.0681V109.571H57.2109V108.714ZM58.0681 108.714H58.9252V109.571H58.0681V108.714ZM58.0681 109.571H58.9252V110.429H58.0681V109.571ZM58.9252 109.571H59.7824V110.429H58.9252V109.571ZM59.7824 109.571H60.6395V110.429H59.7824V109.571ZM60.6395 108.714H61.4967V109.571H60.6395V108.714ZM59.7824 108.714H60.6395V109.571H59.7824V108.714ZM58.9252 108.714H59.7824V109.571H58.9252V108.714ZM60.6395 109.571H61.4967V110.429H60.6395V109.571ZM61.4967 109.571H62.3538V110.429H61.4967V109.571ZM61.4967 110.429H62.3538V111.286H61.4967V110.429ZM60.6395 110.429H61.4967V111.286H60.6395V110.429ZM60.6395 111.286H61.4967V112.143H60.6395V111.286ZM61.4967 111.286H62.3538V112.143H61.4967V111.286ZM60.6395 112.143H61.4967V113H60.6395V112.143ZM59.7824 111.286H60.6395V112.143H59.7824V111.286ZM58.9252 111.286H59.7824V112.143H58.9252V111.286ZM58.0681 111.286H58.9252V112.143H58.0681V111.286ZM57.2109 111.286H58.0681V112.143H57.2109V111.286ZM58.0681 112.143H58.9252V113H58.0681V112.143ZM58.9252 112.143H59.7824V113H58.9252V112.143ZM59.7824 112.143H60.6395V113H59.7824V112.143ZM61.4967 107H62.3538V107.857H61.4967V107ZM60.6395 107H61.4967V107.857H60.6395V107ZM60.6395 106.143H61.4967V107H60.6395V106.143ZM59.7824 106.143H60.6395V107H59.7824V106.143ZM58.9252 106.143H59.7824V107H58.9252V106.143ZM58.0681 106.143H58.9252V107H58.0681V106.143ZM58.0681 107H58.9252V107.857H58.0681V107ZM58.9252 107H59.7824V107.857H58.9252V107ZM59.7824 107H60.6395V107.857H59.7824V107ZM68.3538 113H67.4967V112.143H68.3538V113ZM68.3538 112.143H67.4967V111.286H68.3538V112.143ZM67.4967 112.143H66.6395V111.286H67.4967V112.143ZM66.6395 113H65.7824V112.143H66.6395V113ZM65.7824 113H64.9252V112.143H65.7824V113ZM64.9252 113H64.0681V112.143H64.9252V113ZM64.9252 112.143H64.0681V111.286H64.9252V112.143ZM65.7824 112.143H64.9252V111.286H65.7824V112.143ZM64.0681 112.143H63.2109V111.286H64.0681V112.143ZM64.0681 111.286H63.2109V110.429H64.0681V111.286ZM64.0681 107.857H63.2109V107H64.0681V107.857ZM64.9252 107.857H64.0681V107H64.9252V107.857ZM64.9252 111.286H64.0681V110.429H64.9252V111.286ZM65.7824 107.857H64.9252V107H65.7824V107.857ZM64.9252 107H64.0681V106.143H64.9252V107ZM65.7824 107H64.9252V106.143H65.7824V107ZM66.6395 107H65.7824V106.143H66.6395V107ZM67.4967 107H66.6395V106.143H67.4967V107ZM68.3538 107H67.4967V106.143H68.3538V107ZM68.3538 107.857H67.4967V107H68.3538V107.857ZM67.4967 107.857H66.6395V107H67.4967V107.857ZM68.3538 108.714H67.4967V107.857H68.3538V108.714ZM69.2109 107.857H68.3538V107H69.2109V107.857ZM69.2109 108.714H68.3538V107.857H69.2109V108.714ZM69.2109 109.571H68.3538V108.714H69.2109V109.571ZM69.2109 110.429H68.3538V109.571H69.2109V110.429ZM69.2109 111.286H68.3538V110.429H69.2109V111.286ZM69.2109 112.143H68.3538V111.286H69.2109V112.143ZM68.3538 111.286H67.4967V110.429H68.3538V111.286ZM68.3538 110.429H67.4967V109.571H68.3538V110.429ZM68.3538 109.571H67.4967V108.714H68.3538V109.571ZM66.6395 107.857H65.7824V107H66.6395V107.857ZM66.6395 112.143H65.7824V111.286H66.6395V112.143ZM68.3538 112.143H69.2109V113H68.3538V112.143ZM66.6395 108.714H67.4967V109.571H66.6395V108.714ZM65.7824 108.714H66.6395V109.571H65.7824V108.714ZM64.9252 108.714H65.7824V109.571H64.9252V108.714ZM64.0681 108.714H64.9252V109.571H64.0681V108.714ZM63.2109 109.571H64.0681V110.429H63.2109V109.571ZM64.0681 109.571H64.9252V110.429H64.0681V109.571ZM66.6395 109.571H67.4967V110.429H66.6395V109.571ZM65.7824 109.571H66.6395V110.429H65.7824V109.571ZM64.9252 109.571H65.7824V110.429H64.9252V109.571ZM76.0703 112.143H75.2132V111.286H76.0703V112.143ZM76.0703 113H75.2132V112.143H76.0703V113ZM75.2132 113H74.356V112.143H75.2132V113ZM75.2132 112.143H74.356V111.286H75.2132V112.143ZM75.2132 111.286H74.356V110.429H75.2132V111.286ZM75.2132 110.429H74.356V109.571H75.2132V110.429ZM75.2132 109.571H74.356V108.714H75.2132V109.571ZM76.0703 109.571H75.2132V108.714H76.0703V109.571ZM76.0703 110.429H75.2132V109.571H76.0703V110.429ZM76.0703 111.286H75.2132V110.429H76.0703V111.286ZM76.0703 108.714H75.2132V107.857H76.0703V108.714ZM75.2132 108.714H74.356V107.857H75.2132V108.714ZM75.2132 107.857H74.356V107H75.2132V107.857ZM75.2132 107H74.356V106.143H75.2132V107ZM76.0703 107H75.2132V106.143H76.0703V107ZM76.0703 107.857H75.2132V107H76.0703V107.857ZM71.7846 107H70.9275V106.143H71.7846V107ZM70.9275 107H70.0703V106.143H70.9275V107ZM70.9275 107.857H70.0703V107H70.9275V107.857ZM70.9275 108.714H70.0703V107.857H70.9275V108.714ZM70.9275 109.571H70.0703V108.714H70.9275V109.571ZM70.9275 110.429H70.0703V109.571H70.9275V110.429ZM70.9275 111.286H70.0703V110.429H70.9275V111.286ZM70.9275 112.143H70.0703V111.286H70.9275V112.143ZM71.7846 110.429H70.9275V109.571H71.7846V110.429ZM71.7846 109.571H70.9275V108.714H71.7846V109.571ZM71.7846 108.714H70.9275V107.857H71.7846V108.714ZM71.7846 107.857H70.9275V107H71.7846V107.857ZM71.7846 111.286H70.9275V110.429H71.7846V111.286ZM74.356 112.143H73.4989V111.286H74.356V112.143ZM73.4989 112.143H72.6417V111.286H73.4989V112.143ZM72.6417 112.143H71.7846V111.286H72.6417V112.143ZM72.6417 113H71.7846V112.143H72.6417V113ZM71.7846 113H70.9275V112.143H71.7846V113ZM71.7846 112.143H70.9275V111.286H71.7846V112.143ZM73.4989 113H72.6417V112.143H73.4989V113ZM76.9297 104.429H77.7868V105.286H76.9297V104.429ZM77.7868 104.429H78.644V105.286H77.7868V104.429ZM77.7868 105.286H78.644V106.143H77.7868V105.286ZM77.7868 106.143H78.644V107H77.7868V106.143ZM77.7868 107H78.644V107.857H77.7868V107ZM77.7868 107.857H78.644V108.714H77.7868V107.857ZM77.7868 108.714H78.644V109.571H77.7868V108.714ZM76.9297 108.714H77.7868V109.571H76.9297V108.714ZM76.9297 109.571H77.7868V110.429H76.9297V109.571ZM76.9297 110.429H77.7868V111.286H76.9297V110.429ZM76.9297 111.286H77.7868V112.143H76.9297V111.286ZM76.9297 112.143H77.7868V113H76.9297V112.143ZM77.7868 112.143H78.644V113H77.7868V112.143ZM77.7868 111.286H78.644V112.143H77.7868V111.286ZM77.7868 110.429H78.644V111.286H77.7868V110.429ZM77.7868 109.571H78.644V110.429H77.7868V109.571ZM76.9297 107.857H77.7868V108.714H76.9297V107.857ZM76.9297 107H77.7868V107.857H76.9297V107ZM76.9297 106.143H77.7868V107H76.9297V106.143ZM76.9297 105.286H77.7868V106.143H76.9297V105.286ZM82.9364 111.286H83.7935V112.143H82.9364V111.286ZM82.9364 112.143H83.7935V113H82.9364V112.143ZM82.0792 112.143H82.9364V113H82.0792V112.143ZM82.0792 111.286H82.9364V112.143H82.0792V111.286ZM81.2221 112.143H82.0792V113H81.2221V112.143ZM81.2221 111.286H82.0792V112.143H81.2221V111.286ZM80.365 111.286H81.2221V112.143H80.365V111.286ZM80.365 110.429H81.2221V111.286H80.365V110.429ZM80.365 109.571H81.2221V110.429H80.365V109.571ZM80.365 108.714H81.2221V109.571H80.365V108.714ZM80.365 107.857H81.2221V108.714H80.365V107.857ZM80.365 107H81.2221V107.857H80.365V107ZM81.2221 109.571H82.0792V110.429H81.2221V109.571ZM81.2221 110.429H82.0792V111.286H81.2221V110.429ZM81.2221 108.714H82.0792V109.571H81.2221V108.714ZM81.2221 107.857H82.0792V108.714H81.2221V107.857ZM81.2221 104.429H82.0792V105.286H81.2221V104.429ZM81.2221 105.286H82.0792V106.143H81.2221V105.286ZM81.2221 106.143H82.0792V107H81.2221V106.143ZM81.2221 107H82.0792V107.857H81.2221V107ZM80.365 106.143H81.2221V107H80.365V106.143ZM79.5078 107H80.365V107.857H79.5078V107ZM82.0792 107H82.9364V107.857H82.0792V107ZM82.9364 107H83.7935V107.857H82.9364V107ZM80.365 105.286H81.2221V106.143H80.365V105.286ZM79.5078 107.857H80.365V108.714H79.5078V107.857ZM82.0792 107.857H82.9364V108.714H82.0792V107.857ZM82.9364 107.857H83.7935V108.714H82.9364V107.857Z" fill="white"/>
<rect width="4" height="4" transform="translate(16 16)" fill="#141F46"/>
<rect width="4" height="4" transform="translate(20 16)" fill="#141F46"/>
<rect width="4" height="4" transform="translate(16 20)" fill="#141F46"/>
<rect width="4" height="4" transform="translate(12 20)" fill="#0F163D"/>
<rect width="4" height="4" transform="translate(8 16)" fill="#0A0C34"/>
<rect width="4" height="4" transform="translate(8 12)" fill="#080931"/>
<rect width="4" height="4" transform="translate(24 8)" fill="#080931"/>
<rect width="4" height="4" transform="translate(8 24)" fill="#080931"/>
<rect width="4" height="4" transform="translate(12 28)" fill="#080931"/>
<rect width="4" height="4" transform="translate(24 28)" fill="#080931"/>
<rect width="4" height="4" transform="translate(28 24)" fill="#080931"/>
<rect width="4" height="4" transform="translate(28 12)" fill="#080931"/>
<rect width="4" height="4" transform="translate(12 8)" fill="#080931"/>
<rect width="4" height="4" transform="translate(8 20)" fill="#0A0C34"/>
<rect width="4" height="4" transform="translate(12 16)" fill="#0F163D"/>
<rect width="4" height="4" transform="translate(16 12)" fill="#0F163D"/>
<rect width="4" height="4" transform="translate(20 12)" fill="#0F163D"/>
<rect width="4" height="4" transform="translate(20 20)" fill="#141F46"/>
<rect width="4" height="4" transform="translate(16 24)" fill="#0F163D"/>
<rect width="4" height="4" transform="translate(12 24)" fill="#0C0F37"/>
<rect width="4" height="4" transform="translate(24 12)" fill="#0C0F37"/>
<rect width="4" height="4" transform="translate(12 12)" fill="#0C0F37"/>
<rect width="4" height="4" transform="translate(24 24)" fill="#0C0F37"/>
<rect width="4" height="4" transform="translate(16 28)" fill="#0A0C34"/>
<rect width="4" height="4" transform="translate(20 28)" fill="#0A0C34"/>
<rect width="4" height="4" transform="translate(20 24)" fill="#0F163D"/>
<rect width="4" height="4" transform="translate(24 20)" fill="#0F163D"/>
<rect width="4" height="4" transform="translate(24 16)" fill="#0F163D"/>
<rect width="4" height="4" transform="translate(16 8)" fill="#0A0C34"/>
<rect width="4" height="4" transform="translate(20 8)" fill="#0A0C34"/>
<rect width="4" height="4" transform="translate(28 16)" fill="#0A0C34"/>
<rect width="4" height="4" transform="translate(28 20)" fill="#0A0C34"/>
<rect width="4" height="4" transform="translate(109 101)" fill="#22223C"/>
<rect width="4" height="4" transform="translate(113 101)" fill="#22223C"/>
<rect width="4" height="4" transform="translate(109 105)" fill="#22223C"/>
<rect width="4" height="4" transform="translate(105 105)" fill="#1E1E3A"/>
<rect width="4" height="4" transform="translate(101 101)" fill="#181837"/>
<rect width="4" height="4" transform="translate(101 97)" fill="#161635"/>
<rect width="4" height="4" transform="translate(117 93)" fill="#161635"/>
<rect width="4" height="4" transform="translate(101 109)" fill="#161635"/>
<rect width="4" height="4" transform="translate(105 113)" fill="#161635"/>
<rect width="4" height="4" transform="translate(117 113)" fill="#161635"/>
<rect width="4" height="4" transform="translate(121 109)" fill="#161635"/>
<rect width="4" height="4" transform="translate(121 97)" fill="#161635"/>
<rect width="4" height="4" transform="translate(105 93)" fill="#161635"/>
<rect width="4" height="4" transform="translate(101 105)" fill="#181837"/>
<rect width="4" height="4" transform="translate(105 101)" fill="#1E1E3A"/>
<rect width="4" height="4" transform="translate(109 97)" fill="#1E1E3A"/>
<rect width="4" height="4" transform="translate(113 97)" fill="#1E1E3A"/>
<rect width="4" height="4" transform="translate(113 105)" fill="#22223C"/>
<rect width="4" height="4" transform="translate(109 109)" fill="#1E1E3A"/>
<rect width="4" height="4" transform="translate(105 109)" fill="#1B1B38"/>
<rect width="4" height="4" transform="translate(117 97)" fill="#1B1B38"/>
<rect width="4" height="4" transform="translate(105 97)" fill="#1B1B38"/>
<rect width="4" height="4" transform="translate(117 109)" fill="#1B1B38"/>
<rect width="4" height="4" transform="translate(109 113)" fill="#181837"/>
<rect width="4" height="4" transform="translate(113 113)" fill="#181837"/>
<rect width="4" height="4" transform="translate(113 109)" fill="#1E1E3A"/>
<rect width="4" height="4" transform="translate(117 105)" fill="#1E1E3A"/>
<rect width="4" height="4" transform="translate(117 101)" fill="#1E1E3A"/>
<rect width="4" height="4" transform="translate(109 93)" fill="#181837"/>
<rect width="4" height="4" transform="translate(113 93)" fill="#181837"/>
<rect width="4" height="4" transform="translate(121 101)" fill="#181837"/>
<rect width="4" height="4" transform="translate(121 105)" fill="#181837"/>
<rect width="2.33333" height="2.33333" transform="translate(89.6667 93.6667)" fill="#141F46"/>
<rect width="2.33333" height="2.33333" transform="translate(92 93.6667)" fill="#141F46"/>
<rect width="2.33333" height="2.33333" transform="translate(89.6667 96)" fill="#141F46"/>
<rect width="2.33333" height="2.33333" transform="translate(87.3333 96)" fill="#0F163D"/>
<rect width="2.33333" height="2.33333" transform="translate(85 93.6667)" fill="#0A0C34"/>
<rect width="2.33333" height="2.33333" transform="translate(85 91.3333)" fill="#080931"/>
<rect width="2.33333" height="2.33333" transform="translate(94.3333 89)" fill="#080931"/>
<rect width="2.33333" height="2.33333" transform="translate(85 98.3333)" fill="#080931"/>
<rect width="2.33333" height="2.33333" transform="translate(87.3333 100.667)" fill="#080931"/>
<rect width="2.33333" height="2.33333" transform="translate(94.3333 100.667)" fill="#080931"/>
<rect width="2.33333" height="2.33333" transform="translate(96.6667 98.3333)" fill="#080931"/>
<rect width="2.33333" height="2.33333" transform="translate(96.6667 91.3333)" fill="#080931"/>
<rect width="2.33333" height="2.33333" transform="translate(87.3333 89)" fill="#080931"/>
<rect width="2.33333" height="2.33333" transform="translate(85 96)" fill="#0A0C34"/>
<rect width="2.33333" height="2.33333" transform="translate(87.3333 93.6667)" fill="#0F163D"/>
<rect width="2.33333" height="2.33333" transform="translate(89.6667 91.3333)" fill="#0F163D"/>
<rect width="2.33333" height="2.33333" transform="translate(92 91.3333)" fill="#0F163D"/>
<rect width="2.33333" height="2.33333" transform="translate(92 96)" fill="#141F46"/>
<rect width="2.33333" height="2.33333" transform="translate(89.6667 98.3333)" fill="#0F163D"/>
<rect width="2.33333" height="2.33333" transform="translate(87.3333 98.3333)" fill="#0C0F37"/>
<rect width="2.33333" height="2.33333" transform="translate(94.3333 91.3333)" fill="#0C0F37"/>
<rect width="2.33333" height="2.33333" transform="translate(87.3333 91.3333)" fill="#0C0F37"/>
<rect width="2.33333" height="2.33333" transform="translate(94.3333 98.3333)" fill="#0C0F37"/>
<rect width="2.33333" height="2.33333" transform="translate(89.6667 100.667)" fill="#0A0C34"/>
<rect width="2.33333" height="2.33333" transform="translate(92 100.667)" fill="#0A0C34"/>
<rect width="2.33333" height="2.33333" transform="translate(92 98.3333)" fill="#0F163D"/>
<rect width="2.33333" height="2.33333" transform="translate(94.3333 96)" fill="#0F163D"/>
<rect width="2.33333" height="2.33333" transform="translate(94.3333 93.6667)" fill="#0F163D"/>
<rect width="2.33333" height="2.33333" transform="translate(89.6667 89)" fill="#0A0C34"/>
<rect width="2.33333" height="2.33333" transform="translate(92 89)" fill="#0A0C34"/>
<rect width="2.33333" height="2.33333" transform="translate(96.6667 93.6667)" fill="#0A0C34"/>
<rect width="2.33333" height="2.33333" transform="translate(96.6667 96)" fill="#0A0C34"/>
<rect width="2.33333" height="2.33333" transform="translate(42.6667 85.6667)" fill="#141F46"/>
<rect width="2.33333" height="2.33333" transform="translate(45 85.6667)" fill="#141F46"/>
<rect width="2.33333" height="2.33333" transform="translate(42.6667 88)" fill="#141F46"/>
<rect width="2.33333" height="2.33333" transform="translate(40.3333 88)" fill="#0F163D"/>
<rect width="2.33333" height="2.33333" transform="translate(38 85.6667)" fill="#0A0C34"/>
<rect width="2.33333" height="2.33333" transform="translate(38 83.3333)" fill="#080931"/>
<rect width="2.33333" height="2.33333" transform="translate(47.3333 81)" fill="#080931"/>
<rect width="2.33333" height="2.33333" transform="translate(38 90.3333)" fill="#080931"/>
<rect width="2.33333" height="2.33333" transform="translate(40.3333 92.6667)" fill="#080931"/>
<rect width="2.33333" height="2.33333" transform="translate(47.3333 92.6667)" fill="#080931"/>
<rect width="2.33333" height="2.33333" transform="translate(49.6667 90.3333)" fill="#080931"/>
<rect width="2.33333" height="2.33333" transform="translate(49.6667 83.3333)" fill="#080931"/>
<rect width="2.33333" height="2.33333" transform="translate(40.3333 81)" fill="#080931"/>
<rect width="2.33333" height="2.33333" transform="translate(38 88)" fill="#0A0C34"/>
<rect width="2.33333" height="2.33333" transform="translate(40.3333 85.6667)" fill="#0F163D"/>
<rect width="2.33333" height="2.33333" transform="translate(42.6667 83.3333)" fill="#0F163D"/>
<rect width="2.33333" height="2.33333" transform="translate(45 83.3333)" fill="#0F163D"/>
<rect width="2.33333" height="2.33333" transform="translate(45 88)" fill="#141F46"/>
<rect width="2.33333" height="2.33333" transform="translate(42.6667 90.3333)" fill="#0F163D"/>
<rect width="2.33333" height="2.33333" transform="translate(40.3333 90.3333)" fill="#0C0F37"/>
<rect width="2.33333" height="2.33333" transform="translate(47.3333 83.3333)" fill="#0C0F37"/>
<rect width="2.33333" height="2.33333" transform="translate(40.3333 83.3333)" fill="#0C0F37"/>
<rect width="2.33333" height="2.33333" transform="translate(47.3333 90.3333)" fill="#0C0F37"/>
<rect width="2.33333" height="2.33333" transform="translate(42.6667 92.6667)" fill="#0A0C34"/>
<rect width="2.33333" height="2.33333" transform="translate(45 92.6667)" fill="#0A0C34"/>
<rect width="2.33333" height="2.33333" transform="translate(45 90.3333)" fill="#0F163D"/>
<rect width="2.33333" height="2.33333" transform="translate(47.3333 88)" fill="#0F163D"/>
<rect width="2.33333" height="2.33333" transform="translate(47.3333 85.6667)" fill="#0F163D"/>
<rect width="2.33333" height="2.33333" transform="translate(42.6667 81)" fill="#0A0C34"/>
<rect width="2.33333" height="2.33333" transform="translate(45 81)" fill="#0A0C34"/>
<rect width="2.33333" height="2.33333" transform="translate(49.6667 85.6667)" fill="#0A0C34"/>
<rect width="2.33333" height="2.33333" transform="translate(49.6667 88)" fill="#0A0C34"/>
<rect width="4" height="4" transform="translate(16 102)" fill="#081B24"/>
<rect width="4" height="4" transform="translate(20 102)" fill="#081B24"/>
<rect width="4" height="4" transform="translate(16 106)" fill="#081B24"/>
<rect width="4" height="4" transform="translate(12 106)" fill="#071626"/>
<rect width="4" height="4" transform="translate(8 102)" fill="#070E29"/>
<rect width="4" height="4" transform="translate(8 98)" fill="#070C2A"/>
<rect width="4" height="4" transform="translate(24 94)" fill="#070C2A"/>
<rect width="4" height="4" transform="translate(8 110)" fill="#070C2A"/>
<rect width="4" height="4" transform="translate(12 114)" fill="#070C2A"/>
<rect width="4" height="4" transform="translate(24 114)" fill="#070C2A"/>
<rect width="4" height="4" transform="translate(28 110)" fill="#070C2A"/>
<rect width="4" height="4" transform="translate(28 98)" fill="#070C2A"/>
<rect width="4" height="4" transform="translate(12 94)" fill="#070C2A"/>
<rect width="4" height="4" transform="translate(8 106)" fill="#070E29"/>
<rect width="4" height="4" transform="translate(12 102)" fill="#071626"/>
<rect width="4" height="4" transform="translate(16 98)" fill="#071626"/>
<rect width="4" height="4" transform="translate(20 98)" fill="#071626"/>
<rect width="4" height="4" transform="translate(20 106)" fill="#081B24"/>
<rect width="4" height="4" transform="translate(16 110)" fill="#071626"/>
<rect width="4" height="4" transform="translate(12 110)" fill="#071128"/>
<rect width="4" height="4" transform="translate(24 98)" fill="#071128"/>
<rect width="4" height="4" transform="translate(12 98)" fill="#071128"/>
<rect width="4" height="4" transform="translate(24 110)" fill="#071128"/>
<rect width="4" height="4" transform="translate(16 114)" fill="#070E29"/>
<rect width="4" height="4" transform="translate(20 114)" fill="#070E29"/>
<rect width="4" height="4" transform="translate(20 110)" fill="#071626"/>
<rect width="4" height="4" transform="translate(24 106)" fill="#071626"/>
<rect width="4" height="4" transform="translate(24 102)" fill="#071626"/>
<rect width="4" height="4" transform="translate(16 94)" fill="#070E29"/>
<rect width="4" height="4" transform="translate(20 94)" fill="#070E29"/>
<rect width="4" height="4" transform="translate(28 102)" fill="#070E29"/>
<rect width="4" height="4" transform="translate(28 106)" fill="#070E29"/>
<rect width="2" height="2" transform="translate(104 42)" fill="#081B24"/>
<rect width="2" height="2" transform="translate(106 42)" fill="#081B24"/>
<rect width="2" height="2" transform="translate(104 44)" fill="#081B24"/>
<rect width="2" height="2" transform="translate(102 44)" fill="#071626"/>
<rect width="2" height="2" transform="translate(100 42)" fill="#070E29"/>
<rect width="2" height="2" transform="translate(100 40)" fill="#070C2A"/>
<rect width="2" height="2" transform="translate(108 38)" fill="#070C2A"/>
<rect width="2" height="2" transform="translate(100 46)" fill="#070C2A"/>
<rect width="2" height="2" transform="translate(102 48)" fill="#070C2A"/>
<rect width="2" height="2" transform="translate(108 48)" fill="#070C2A"/>
<rect width="2" height="2" transform="translate(110 46)" fill="#070C2A"/>
<rect width="2" height="2" transform="translate(110 40)" fill="#070C2A"/>
<rect width="2" height="2" transform="translate(102 38)" fill="#070C2A"/>
<rect width="2" height="2" transform="translate(100 44)" fill="#070E29"/>
<rect width="2" height="2" transform="translate(102 42)" fill="#071626"/>
<rect width="2" height="2" transform="translate(104 40)" fill="#071626"/>
<rect width="2" height="2" transform="translate(106 40)" fill="#071626"/>
<rect width="2" height="2" transform="translate(106 44)" fill="#081B24"/>
<rect width="2" height="2" transform="translate(104 46)" fill="#071626"/>
<rect width="2" height="2" transform="translate(102 46)" fill="#071128"/>
<rect width="2" height="2" transform="translate(108 40)" fill="#071128"/>
<rect width="2" height="2" transform="translate(102 40)" fill="#071128"/>
<rect width="2" height="2" transform="translate(108 46)" fill="#071128"/>
<rect width="2" height="2" transform="translate(104 48)" fill="#070E29"/>
<rect width="2" height="2" transform="translate(106 48)" fill="#070E29"/>
<rect width="2" height="2" transform="translate(106 46)" fill="#071626"/>
<rect width="2" height="2" transform="translate(108 44)" fill="#071626"/>
<rect width="2" height="2" transform="translate(108 42)" fill="#071626"/>
<rect width="2" height="2" transform="translate(104 38)" fill="#070E29"/>
<rect width="2" height="2" transform="translate(106 38)" fill="#070E29"/>
<rect width="2" height="2" transform="translate(110 42)" fill="#070E29"/>
<rect width="2" height="2" transform="translate(110 44)" fill="#070E29"/>
<rect width="4" height="4" transform="translate(60 18)" fill="#EFEDEE"/>
<rect width="4" height="4" transform="translate(64 18)" fill="#EFEDEE"/>
<rect width="4" height="4" transform="translate(60 22)" fill="#EFEDEE"/>
<rect width="4" height="4" transform="translate(60 26)" fill="#291510"/>
<rect width="4" height="4" transform="translate(60 30)" fill="#291510"/>
<rect width="4" height="4" transform="translate(64 34)" fill="#291510"/>
<rect width="4" height="4" transform="translate(64 30)" fill="#4C8FCA"/>
<rect width="4" height="4" transform="translate(60 34)" fill="#291510"/>
<rect width="4" height="4" transform="translate(56 34)" fill="#291510"/>
<rect width="4" height="4" transform="translate(56 38)" fill="#291510"/>
<rect width="4" height="4" transform="translate(60 38)" fill="#291510"/>
<rect width="4" height="4" transform="translate(60 42)" fill="#291510"/>
<rect width="4" height="4" transform="translate(64 38)" fill="#291510"/>
<rect width="4" height="4" transform="translate(64 42)" fill="#291510"/>
<rect width="4" height="4" transform="translate(68 38)" fill="#291510"/>
<rect width="4" height="4" transform="translate(68 30)" fill="#291510"/>
<rect width="4" height="4" transform="translate(68 34)" fill="#291510"/>
<rect width="4" height="4" transform="translate(64 26)" fill="#291510"/>
<rect width="4" height="4" transform="translate(56 30)" fill="#291510"/>
<rect width="4" height="4" transform="translate(72 30)" fill="#235235"/>
<rect width="4" height="4" transform="translate(52 30)" fill="#235235"/>
<rect width="4" height="4" transform="translate(52 38)" fill="#235235"/>
<rect width="4" height="4" transform="translate(52 42)" fill="#307453"/>
<rect width="4" height="4" transform="translate(72 42)" fill="#307453"/>
<rect width="4" height="4" transform="translate(68 42)" fill="#3B9067"/>
<rect width="4" height="4" transform="translate(68 50)" fill="#3B9067"/>
<rect width="4" height="4" transform="translate(76 50)" fill="#C0BEBF"/>
<rect width="4" height="4" transform="translate(80 50)" fill="#C0BEBF"/>
<rect width="4" height="4" transform="translate(68 46)" fill="#3B9067"/>
<rect width="4" height="4" transform="translate(68 54)" fill="#3B9067"/>
<rect width="4" height="4" transform="translate(68 58)" fill="#3B9067"/>
<rect width="4" height="4" transform="translate(52 50)" fill="#307453"/>
<rect width="4" height="4" transform="translate(72 50)" fill="#307453"/>
<rect width="4" height="4" transform="translate(76 46)" fill="#5F626E"/>
<rect width="4" height="4" transform="translate(80 46)" fill="#5F626E"/>
<rect width="4" height="4" transform="translate(52 54)" fill="#307453"/>
<rect width="4" height="4" transform="translate(36 50)" fill="#3B9067"/>
<rect width="4" height="4" transform="translate(40 50)" fill="#3B9067"/>
<rect width="4" height="4" transform="translate(44 54)" fill="#235235"/>
<rect width="4" height="4" transform="translate(48 70)" fill="#235235"/>
<rect width="4" height="4" transform="translate(76 70)" fill="#235235"/>
<rect width="4" height="4" transform="translate(48 54)" fill="#235235"/>
<rect width="4" height="4" transform="translate(48 58)" fill="#3B9067"/>
<rect width="4" height="4" transform="translate(76 58)" fill="#3B9067"/>
<rect width="4" height="4" transform="translate(80 62)" fill="#3B9067"/>
<rect width="4" height="4" transform="translate(84 66)" fill="#3B9067"/>
<rect width="4" height="4" transform="translate(44 62)" fill="#3B9067"/>
<rect width="4" height="4" transform="translate(40 66)" fill="#3B9067"/>
<rect width="4" height="4" transform="translate(76 54)" fill="#235235"/>
<rect width="4" height="4" transform="translate(80 54)" fill="#235235"/>
<rect width="4" height="4" transform="translate(72 54)" fill="#307453"/>
<rect width="4" height="4" transform="translate(52 58)" fill="#307453"/>
<rect width="4" height="4" transform="translate(44 66)" fill="#307453"/>
<rect width="4" height="4" transform="translate(80 66)" fill="#307453"/>
<rect width="4" height="4" transform="translate(72 58)" fill="#307453"/>
<rect width="4" height="4" transform="translate(52 46)" fill="#307453"/>
<rect width="4" height="4" transform="translate(56 42)" fill="#3B9067"/>
<rect width="4" height="4" transform="translate(56 50)" fill="#3B9067"/>
<rect width="4" height="4" transform="translate(56 46)" fill="#3B9067"/>
<rect width="4" height="4" transform="translate(60 46)" fill="#62A685"/>
<rect width="4" height="4" transform="translate(64 46)" fill="#62A685"/>
<rect width="4" height="4" transform="translate(60 50)" fill="#62A685"/>
<rect width="4" height="4" transform="translate(60 62)" fill="#EFEDEE"/>
<rect width="4" height="4" transform="translate(64 62)" fill="#EFEDEE"/>
<rect width="4" height="4" transform="translate(60 66)" fill="#EFEDEE"/>
<rect width="4" height="4" transform="translate(60 70)" fill="#7F818B"/>
<rect width="4" height="4" transform="translate(40 74)" fill="#7F818B"/>
<rect width="4" height="4" transform="translate(84 74)" fill="#7F818B"/>
<rect width="4" height="4" transform="translate(72 74)" fill="#7F818B"/>
<rect width="4" height="4" transform="translate(76 74)" fill="#B2AEB6"/>
<rect width="4" height="4" transform="translate(80 74)" fill="#B2AEB6"/>
<rect width="4" height="4" transform="translate(52 74)" fill="#7F818B"/>
<rect width="4" height="4" transform="translate(52 70)" fill="#5F626E"/>
<rect width="4" height="4" transform="translate(72 70)" fill="#5F626E"/>
<rect width="4" height="4" transform="translate(44 74)" fill="#B2AEB6"/>
<rect width="4" height="4" transform="translate(48 74)" fill="#B2AEB6"/>
<rect width="4" height="4" transform="translate(52 62)" fill="#9F9AA4"/>
<rect width="4" height="4" transform="translate(52 66)" fill="#9F9AA4"/>
<rect width="4" height="4" transform="translate(64 70)" fill="#7F818B"/>
<rect width="4" height="4" transform="translate(64 66)" fill="#EFEDEE"/>
<rect width="4" height="4" transform="translate(72 62)" fill="#9F9AA4"/>
<rect width="4" height="4" transform="translate(72 66)" fill="#9F9AA4"/>
<rect width="4" height="4" transform="translate(64 50)" fill="#62A685"/>
<rect width="4" height="4" transform="translate(60 54)" fill="#62A685"/>
<rect width="4" height="4" transform="translate(64 54)" fill="#62A685"/>
<rect width="4" height="4" transform="translate(60 58)" fill="#62A685"/>
<rect width="4" height="4" transform="translate(64 58)" fill="#62A685"/>
<rect width="4" height="4" transform="translate(56 54)" fill="#3B9067"/>
<rect width="4" height="4" transform="translate(56 58)" fill="#3B9067"/>
<rect width="4" height="4" transform="translate(56 62)" fill="#1C422B"/>
<rect width="4" height="4" transform="translate(68 62)" fill="#1C422B"/>
<rect width="4" height="4" transform="translate(72 46)" fill="#307453"/>
<rect width="4" height="4" transform="translate(72 38)" fill="#235235"/>
<rect width="4" height="4" transform="translate(52 34)" fill="#3B9067"/>
<rect width="4" height="4" transform="translate(72 34)" fill="#3B9067"/>
<rect width="4" height="4" transform="translate(64 22)" fill="#EFEDEE"/>
<rect width="4" height="4" transform="translate(44 38)" fill="#EFEDEE"/>
<rect width="4" height="4" transform="translate(48 38)" fill="#EFEDEE"/>
<rect width="4" height="4" transform="translate(44 42)" fill="#EFEDEE"/>
<rect width="4" height="4" transform="translate(84 42)" fill="#3B9067"/>
<rect width="4" height="4" transform="translate(84 46)" fill="#235235"/>
<rect width="4" height="4" transform="translate(92 50)" fill="#235235"/>
<rect width="4" height="4" transform="translate(32 50)" fill="#235235"/>
<rect width="4" height="4" transform="translate(88 46)" fill="#235235"/>
<rect width="4" height="4" transform="translate(36 46)" fill="#235235"/>
<rect width="4" height="4" transform="translate(40 46)" fill="#235235"/>
<rect width="4" height="4" transform="translate(40 42)" fill="#3B9067"/>
<rect width="4" height="4" transform="translate(32 54)" fill="#3B9067"/>
<rect width="4" height="4" transform="translate(32 58)" fill="#1C422B"/>
<rect width="4" height="4" transform="translate(48 62)" fill="#1C422B"/>
<rect width="4" height="4" transform="translate(48 66)" fill="#1C422B"/>
<rect width="4" height="4" transform="translate(76 62)" fill="#1C422B"/>
<rect width="4" height="4" transform="translate(76 66)" fill="#1C422B"/>
<rect width="4" height="4" transform="translate(80 70)" fill="#1C422B"/>
<rect width="4" height="4" transform="translate(84 70)" fill="#1C422B"/>
<rect width="4" height="4" transform="translate(40 70)" fill="#1C422B"/>
<rect width="4" height="4" transform="translate(44 70)" fill="#1C422B"/>
<rect width="4" height="4" transform="translate(92 58)" fill="#1C422B"/>
<rect width="4" height="4" transform="translate(36 54)" fill="#1C422B"/>
<rect width="4" height="4" transform="translate(40 54)" fill="#1C422B"/>
<rect width="4" height="4" transform="translate(84 54)" fill="#1C422B"/>
<rect width="4" height="4" transform="translate(88 54)" fill="#1C422B"/>
<rect width="4" height="4" transform="translate(84 50)" fill="#3B9067"/>
<rect width="4" height="4" transform="translate(92 54)" fill="#3B9067"/>
<rect width="4" height="4" transform="translate(88 50)" fill="#3B9067"/>
<rect width="4" height="4" transform="translate(48 42)" fill="#EFEDEE"/>
<rect width="4" height="4" transform="translate(76 38)" fill="#EFEDEE"/>
<rect width="4" height="4" transform="translate(80 38)" fill="#EFEDEE"/>
<rect width="4" height="4" transform="translate(80 34)" fill="#5F626E"/>
<rect width="4" height="4" transform="translate(44 46)" fill="#5F626E"/>
<rect width="4" height="4" transform="translate(44 50)" fill="#C0BEBF"/>
<rect width="4" height="4" transform="translate(48 50)" fill="#C0BEBF"/>
<rect width="4" height="4" transform="translate(48 46)" fill="#5F626E"/>
<rect width="4" height="4" transform="translate(80 30)" fill="#7F818B"/>
<rect width="4" height="4" transform="translate(80 26)" fill="#B2AEB6"/>
<rect width="4" height="4" transform="translate(44 26)" fill="#B2AEB6"/>
<rect width="4" height="4" transform="translate(44 30)" fill="#7F818B"/>
<rect width="4" height="4" transform="translate(44 34)" fill="#5F626E"/>
<rect width="4" height="4" transform="translate(76 42)" fill="#EFEDEE"/>
<rect width="4" height="4" transform="translate(80 42)" fill="#EFEDEE"/>
<rect width="4" height="4" transform="translate(60 14)" fill="#9F9AA4"/>
<rect width="4" height="4" transform="translate(64 14)" fill="#9F9AA4"/>
<rect width="4" height="4" transform="translate(68 22)" fill="#9F9AA4"/>
<rect width="4" height="4" transform="translate(56 22)" fill="#9F9AA4"/>
<rect width="4" height="4" transform="translate(56 26)" fill="#9F9AA4"/>
<rect width="4" height="4" transform="translate(68 26)" fill="#9F9AA4"/>
</svg>
